<svg width="26" height="24" viewBox="0 0 26 24" fill="none" xmlns="http://www.w3.org/2000/svg">
<path d="M13 1.5C14.0774 1.5 15.1108 1.89509 15.8726 2.59835C16.6345 3.30161 17.0625 4.25544 17.0625 5.25V6H8.9375V5.25C8.9375 4.25544 9.36551 3.30161 10.1274 2.59835C10.8892 1.89509 11.9226 1.5 13 1.5ZM18.6875 6V5.25C18.6875 3.85761 18.0883 2.52226 17.0217 1.53769C15.9551 0.553123 14.5084 0 13 0C11.4916 0 10.0449 0.553123 8.97833 1.53769C7.91172 2.52226 7.3125 3.85761 7.3125 5.25V6H1.625V21C1.625 21.7956 1.96741 22.5587 2.5769 23.1213C3.1864 23.6839 4.01305 24 4.875 24H21.125C21.987 24 22.8136 23.6839 23.4231 23.1213C24.0326 22.5587 24.375 21.7956 24.375 21V6H18.6875ZM3.25 7.5H22.75V21C22.75 21.3978 22.5788 21.7794 22.274 22.0607C21.9693 22.342 21.556 22.5 21.125 22.5H4.875C4.44402 22.5 4.0307 22.342 3.72595 22.0607C3.4212 21.7794 3.25 21.3978 3.25 21V7.5Z" fill="black"/>
</svg>
