<svg width="25" height="24" viewBox="0 0 25 24" fill="none" xmlns="http://www.w3.org/2000/svg">
<g clip-path="url(#clip0)">
<path d="M12.4998 4.12207L11.3795 3.01657C8.74984 0.421573 3.92796 1.31707 2.18734 4.57957C1.37015 6.11407 1.18577 8.32957 2.67796 11.1571C4.11546 13.8796 7.10609 17.1406 12.4998 20.6926C17.8936 17.1406 20.8827 13.8796 22.3217 11.1571C23.8139 8.32807 23.6311 6.11407 22.8123 4.57957C21.0717 1.31707 16.2498 0.420073 13.6201 3.01507L12.4998 4.12207ZM12.4998 22.5001C-11.458 7.30207 5.12327 -4.55993 12.2248 1.71457C12.3186 1.79707 12.4108 1.88257 12.4998 1.97107C12.588 1.88265 12.6797 1.79759 12.7748 1.71607C19.8748 -4.56293 36.4577 7.30057 12.4998 22.5001Z" fill="black"/>
</g>
<defs>
<clipPath id="clip0">
<rect width="25" height="24" fill="white"/>
</clipPath>
</defs>
</svg>
