<svg width="25" height="24" viewBox="0 0 25 24" fill="none" xmlns="http://www.w3.org/2000/svg">
<path d="M17.1875 9C17.1875 10.1935 16.6936 11.3381 15.8146 12.182C14.9355 13.0259 13.7432 13.5 12.5 13.5C11.2568 13.5 10.0645 13.0259 9.18544 12.182C8.30636 11.3381 7.8125 10.1935 7.8125 9C7.8125 7.80653 8.30636 6.66193 9.18544 5.81802C10.0645 4.97411 11.2568 4.5 12.5 4.5C13.7432 4.5 14.9355 4.97411 15.8146 5.81802C16.6936 6.66193 17.1875 7.80653 17.1875 9Z" fill="black"/>
<path fill-rule="evenodd" clip-rule="evenodd" d="M0 12C0 8.8174 1.31696 5.76516 3.66117 3.51472C6.00537 1.26428 9.18479 0 12.5 0C15.8152 0 18.9946 1.26428 21.3388 3.51472C23.683 5.76516 25 8.8174 25 12C25 15.1826 23.683 18.2348 21.3388 20.4853C18.9946 22.7357 15.8152 24 12.5 24C9.18479 24 6.00537 22.7357 3.66117 20.4853C1.31696 18.2348 0 15.1826 0 12ZM12.5 1.5C10.4403 1.50011 8.42245 2.05854 6.67875 3.11104C4.93506 4.16354 3.53638 5.66732 2.64369 7.44929C1.75101 9.23127 1.4006 11.219 1.63281 13.1837C1.86502 15.1485 2.6704 17.0103 3.95625 18.555C5.06563 16.839 7.50781 15 12.5 15C17.4922 15 19.9328 16.8375 21.0438 18.555C22.3296 17.0103 23.135 15.1485 23.3672 13.1837C23.5994 11.219 23.249 9.23127 22.3563 7.44929C21.4636 5.66732 20.0649 4.16354 18.3212 3.11104C16.5776 2.05854 14.5597 1.50011 12.5 1.5Z" fill="black"/>
</svg>
