<svg width="26" height="24" viewBox="0 0 26 24" fill="none" xmlns="http://www.w3.org/2000/svg">
<g clip-path="url(#clip0)">
<path d="M19.0807 15.5157C20.6542 13.5337 21.359 11.0764 21.054 8.63539C20.749 6.19438 19.4568 3.94967 17.4359 2.35036C15.4149 0.751044 12.8143 -0.0849322 10.1544 0.00967753C7.49437 0.104287 4.97117 1.12251 3.08955 2.86062C1.20794 4.59874 0.106676 6.92858 0.00608577 9.38401C-0.0945047 11.8394 0.812997 14.2394 2.54703 16.1037C4.28107 17.9681 6.71375 19.1593 9.3584 19.439C12.003 19.7188 14.6646 19.0665 16.8106 17.6127H16.809C16.8577 17.6727 16.9097 17.7297 16.9682 17.7852L23.2245 23.5602C23.5292 23.8416 23.9425 23.9998 24.3736 24C24.8047 24.0001 25.2181 23.8422 25.5231 23.5609C25.828 23.2796 25.9994 22.8981 25.9995 22.5002C25.9997 22.1023 25.8286 21.7206 25.5239 21.4392L19.2676 15.6642C19.2095 15.6099 19.147 15.5597 19.0807 15.5142V15.5157ZM19.5 9.74966C19.5 10.8331 19.2688 11.9059 18.8197 12.9068C18.3705 13.9077 17.7122 14.8172 16.8823 15.5833C16.0523 16.3494 15.0671 16.9571 13.9827 17.3717C12.8984 17.7863 11.7362 17.9997 10.5625 17.9997C9.3888 17.9997 8.22661 17.7863 7.14226 17.3717C6.05791 16.9571 5.07265 16.3494 4.24273 15.5833C3.4128 14.8172 2.75447 13.9077 2.30532 12.9068C1.85617 11.9059 1.62499 10.8331 1.62499 9.74966C1.62499 7.56163 2.56662 5.46321 4.24273 3.91603C5.91883 2.36886 8.19212 1.49966 10.5625 1.49966C12.9329 1.49966 15.2062 2.36886 16.8823 3.91603C18.5584 5.46321 19.5 7.56163 19.5 9.74966Z" fill="black"/>
</g>
<defs>
<clipPath id="clip0">
<rect width="26" height="24" fill="white"/>
</clipPath>
</defs>
</svg>
